<svg width="80" height="80" viewBox="0 0 80 80" fill="none" xmlns="http://www.w3.org/2000/svg">
<circle opacity="0.5" cx="40" cy="40" r="40" fill="#CCD4DE"/>
<path fill-rule="evenodd" clip-rule="evenodd" d="M34.9953 24.4067C34.9951 24.4067 34.9962 24.4044 34.9994 24.3999C34.9971 24.4045 34.9955 24.4067 34.9953 24.4067ZM35.1189 24.287L35.1165 24.2889L35.1189 24.2908C35.3049 24.4359 35.6363 24.6102 36.1351 24.7748C37.122 25.1006 38.5487 25.319 40.1702 25.319C41.7917 25.319 43.2184 25.1006 44.2053 24.7748C44.7041 24.6102 45.0355 24.4359 45.2215 24.2908L45.2239 24.2889L45.2215 24.287C45.0355 24.1419 44.7041 23.9677 44.2053 23.803C43.2184 23.4772 41.7917 23.2588 40.1702 23.2588C38.5487 23.2588 37.122 23.4772 36.1351 23.803C35.6363 23.9677 35.3049 24.1419 35.1189 24.287ZM45.3451 24.4067C45.3449 24.4067 45.3433 24.4045 45.341 24.3999C45.3442 24.4044 45.3454 24.4067 45.3451 24.4067ZM45.341 24.1779C45.3433 24.1734 45.3449 24.1711 45.3451 24.1712C45.3453 24.1712 45.3442 24.1734 45.341 24.1779ZM34.9994 24.1779C34.9962 24.1734 34.9951 24.1712 34.9953 24.1712C34.9955 24.1711 34.9971 24.1734 34.9994 24.1779ZM40.1702 21.2588C38.3952 21.2588 36.747 21.4948 35.5082 21.9038C34.8941 22.1065 34.3248 22.3698 33.8884 22.7104C33.4644 23.0413 33.0204 23.5667 33.0204 24.2889C33.0204 25.0112 33.4644 25.5365 33.8884 25.8675C34.3248 26.2081 34.8941 26.4713 35.5082 26.674C36.747 27.083 38.3952 27.319 40.1702 27.319C41.9452 27.319 43.5934 27.083 44.8323 26.674C45.4464 26.4713 46.0156 26.2081 46.452 25.8675C46.8761 25.5365 47.32 25.0112 47.32 24.2889C47.32 23.5667 46.8761 23.0413 46.452 22.7104C46.0156 22.3698 45.4464 22.1065 44.8323 21.9038C43.5934 21.4948 41.9452 21.2588 40.1702 21.2588ZM30.6719 30.0949C33.736 28.4489 37.6796 28.6393 40.257 31.1831C42.9514 29.0086 46.7233 28.6207 49.8332 30.2875L57.5518 34.4241C57.9175 34.6201 58.2522 34.8691 58.545 35.1631C59.9458 36.5699 60.0862 38.4775 59.3309 39.8762C58.5557 41.3119 56.8596 42.1498 54.9309 41.4148C54.8597 41.3877 54.7892 41.3603 54.7194 41.3326C54.6323 41.298 54.5432 41.2618 54.4527 41.2242C54.4323 41.7246 54.2993 42.2093 54.0673 42.6385C53.7445 43.2355 53.2223 43.7365 52.5416 43.9963C51.851 44.2597 51.068 44.2479 50.2839 43.9368C49.726 43.7154 48.8878 43.2327 48.0991 42.7471C48.0434 43.1216 47.924 43.4814 47.747 43.8089C47.4242 44.406 46.902 44.9069 46.2212 45.1667C45.5307 45.4301 44.7477 45.4183 43.9636 45.1072C43.222 44.8129 42.2501 44.3119 41.5475 43.9344C41.0469 43.6655 40.5816 43.3474 40.1517 42.9927L39.9964 43.1059C39.6935 43.3266 39.3744 43.5345 39.0367 43.7219C38.3646 44.0948 36.9993 44.8336 36.0376 45.2162C35.2532 45.5281 34.4696 45.5406 33.7784 45.2775C33.097 45.0181 32.5741 44.5172 32.2506 43.9199C32.0724 43.5911 31.9524 43.2295 31.8966 42.8531C31.1093 43.3389 30.2733 43.8213 29.7163 44.0428C28.9319 44.3548 28.1484 44.3672 27.4571 44.1042C26.7757 43.8448 26.2528 43.3439 25.9293 42.7466C25.6959 42.3158 25.5623 41.8289 25.5421 41.3262C25.4537 41.363 25.3667 41.3985 25.2814 41.4324C25.2146 41.459 25.1471 41.4853 25.079 41.5114C23.1482 42.2501 21.4489 41.4126 20.6713 39.9755C19.9138 38.5755 20.0525 36.6648 21.4538 35.2543C21.7469 34.9592 22.0822 34.7092 22.4486 34.5123L30.6719 30.0949ZM45.5682 41.1036L45.569 41.1024L45.5197 41.0529L45.7793 40.7945L46.1322 40.2778L46.6962 39.4521L46.6963 39.4521L46.6966 39.4524L46.6981 39.4534L46.7047 39.4579L46.7312 39.4759L46.8348 39.5461C46.925 39.607 47.0557 39.6949 47.2166 39.8021C47.5388 40.0166 47.9806 40.3073 48.4601 40.6128C49.4552 41.2467 50.5011 41.8713 51.0216 42.0778C51.3852 42.2221 51.649 42.1962 51.8286 42.1276C52.0181 42.0554 52.1895 41.9064 52.3079 41.6873C52.5312 41.2743 52.5391 40.6524 52.0663 40.1148C51.6737 39.9189 51.3313 39.743 51.0861 39.6156C50.9622 39.5512 50.8628 39.4991 50.7942 39.4629L50.715 39.421L50.694 39.4099L50.6885 39.4069L50.6869 39.4061L50.6865 39.4059L50.6863 39.4058C50.6863 39.4058 50.6863 39.4057 51.157 38.5235L51.6277 37.6412L51.6277 37.6412L51.6279 37.6413L51.6289 37.6418L51.6334 37.6442L51.6523 37.6542L51.7269 37.6937C51.7924 37.7282 51.8881 37.7785 52.0083 37.8409C52.2486 37.9658 52.5856 38.1389 52.9715 38.3313C53.0641 38.3775 53.1592 38.4247 53.2562 38.4724L53.2573 38.4713L53.2605 38.4745C53.9771 38.8272 54.7929 39.2101 55.4571 39.4736C55.5181 39.4978 55.5801 39.5219 55.6431 39.5459C56.5851 39.9049 57.2474 39.5254 57.5711 38.9259C57.9147 38.2896 57.8946 37.3444 57.1278 36.5744C56.9743 36.4202 56.7988 36.2896 56.6071 36.1869L48.8885 32.0503C46.3545 30.6922 43.2501 31.1051 41.161 33.0444V41.2219C41.5723 41.5953 42.0174 41.9165 42.494 42.1726C43.1958 42.5496 44.0777 43.0008 44.7013 43.2482C45.0649 43.3925 45.3287 43.3666 45.5083 43.298C45.6978 43.2258 45.8692 43.0768 45.9876 42.8577C46.223 42.4224 46.219 41.7551 45.6652 41.199L45.5747 41.1081L45.571 41.1055L45.569 41.1042L45.5684 41.1038L45.5682 41.1036ZM39.161 41.24L38.8186 41.4895C38.5725 41.6687 38.3227 41.8308 38.0664 41.973C37.3807 42.3535 36.1231 43.0297 35.2984 43.3578C34.9343 43.5026 34.67 43.4769 34.4899 43.4083C34.2999 43.336 34.128 43.1869 34.0092 42.9674C33.7729 42.5312 33.7764 41.8625 34.3305 41.3047L34.4303 41.2042L34.4312 41.2036L34.4318 41.2032L34.4319 41.2031C34.4319 41.2031 34.4319 41.2031 34.4319 41.203L34.4317 41.2028L34.4816 41.1525L34.2184 40.891L33.8671 40.3779L33.3021 39.5528L33.3021 39.5528L33.3018 39.553L33.3002 39.5541L33.2937 39.5585L33.2671 39.5766L33.1636 39.647C33.0734 39.708 32.9426 39.7962 32.7817 39.9036C32.4596 40.1186 32.0179 40.4099 31.5384 40.7161C30.5433 41.3516 29.4975 41.9774 28.9771 42.1844C28.613 42.3292 28.3487 42.3035 28.1686 42.235C27.9786 42.1627 27.8068 42.0136 27.6879 41.7941C27.463 41.3788 27.4553 40.7529 27.9331 40.2125C28.3262 40.0158 28.6691 39.8393 28.9146 39.7114C29.0386 39.6469 29.1379 39.5946 29.2065 39.5584L29.2857 39.5164L29.3067 39.5052L29.3123 39.5022L29.3138 39.5014L29.3142 39.5012L29.3144 39.5011C29.3144 39.5011 29.3145 39.5011 28.8429 38.6192L28.3713 37.7374L28.3713 37.7374L28.3711 37.7375L28.3701 37.7381L28.3656 37.7405L28.3468 37.7505L28.2721 37.7901C28.2067 37.8246 28.1109 37.875 27.9908 37.9376C27.7504 38.0628 27.4134 38.2363 27.0276 38.4291C26.9349 38.4755 26.8396 38.5229 26.7426 38.5707L26.7415 38.5696L26.7383 38.5728C26.0218 38.9262 25.2062 39.3099 24.5423 39.574C24.4839 39.5972 24.4245 39.6204 24.3643 39.6434C23.4202 40.0046 22.7556 39.6248 22.4303 39.0237C22.085 38.3855 22.1045 37.4371 22.8726 36.6639C23.0266 36.5089 23.2026 36.3776 23.3951 36.2742L31.6184 31.8568C34.0855 30.5315 37.0838 30.7926 38.9254 32.6802C39.0038 32.7606 39.0513 32.812 39.1075 32.8728L39.1075 32.8729L39.1467 32.9152C39.1514 32.9203 39.1562 32.9255 39.161 32.9307V41.24Z" fill="#374656"/>
<path d="M39.6073 57.9941H37.5624V54.4316H34.5331V57.9941H32.4764V49.4629H34.5331V52.8496H37.5624V49.4629H39.6073V57.9941Z" fill="#374656"/>
<path d="M40.9139 57.9941V49.4629H43.9784C45.076 49.4629 45.91 49.6641 46.4803 50.0664C47.0546 50.4688 47.3417 51.0527 47.3417 51.8184C47.3417 52.2598 47.2401 52.6367 47.037 52.9492C46.8339 53.2617 46.535 53.4922 46.1405 53.6406C46.5858 53.7578 46.9276 53.9766 47.1659 54.2969C47.4042 54.6172 47.5233 55.0078 47.5233 55.4688C47.5233 56.3047 47.2577 56.9336 46.7264 57.3555C46.1991 57.7734 45.4159 57.9863 44.3768 57.9941H40.9139ZM42.9706 54.3672V56.4121H44.3182C44.6893 56.4121 44.9745 56.3281 45.1737 56.1602C45.3729 55.9883 45.4725 55.748 45.4725 55.4395C45.4725 54.7285 45.119 54.3711 44.412 54.3672H42.9706ZM42.9706 53.0195H44.0428C44.4921 53.0156 44.8124 52.9336 45.0038 52.7734C45.1952 52.6133 45.2909 52.377 45.2909 52.0645C45.2909 51.7051 45.1874 51.4473 44.9803 51.291C44.7733 51.1309 44.4393 51.0508 43.9784 51.0508H42.9706V53.0195Z" fill="#374656"/>
</svg>
