<svg width="80" height="80" viewBox="0 0 80 80" fill="none" xmlns="http://www.w3.org/2000/svg">
<circle opacity="0.5" cx="40" cy="40" r="40" fill="#CCD4DE"/>
<path fill-rule="evenodd" clip-rule="evenodd" d="M34.9956 31.0453C34.9954 31.0453 34.9965 31.0431 34.9997 31.0386C34.9974 31.0431 34.9958 31.0454 34.9956 31.0453ZM35.1192 30.9257L35.1168 30.9276L35.1192 30.9295C35.3052 31.0746 35.6366 31.2488 36.1354 31.4135C37.1223 31.7393 38.5491 31.9577 40.1705 31.9577C41.792 31.9577 43.2187 31.7393 44.2056 31.4135C44.7044 31.2488 45.0358 31.0746 45.2218 30.9295L45.2242 30.9276L45.2218 30.9257C45.0358 30.7806 44.7044 30.6063 44.2056 30.4417C43.2187 30.1159 41.792 29.8975 40.1705 29.8975C38.5491 29.8975 37.1223 30.1159 36.1354 30.4417C35.6366 30.6063 35.3052 30.7806 35.1192 30.9257ZM45.3454 31.0453C45.3452 31.0454 45.3436 31.0431 45.3413 31.0386C45.3445 31.0431 45.3457 31.0453 45.3454 31.0453ZM45.3413 30.8166C45.3436 30.812 45.3452 30.8098 45.3454 30.8098C45.3457 30.8098 45.3445 30.8121 45.3413 30.8166ZM34.9997 30.8166C34.9965 30.8121 34.9954 30.8098 34.9956 30.8098C34.9958 30.8098 34.9974 30.812 34.9997 30.8166ZM40.1705 27.8975C38.3955 27.8975 36.7473 28.1335 35.5085 28.5425C34.8944 28.7452 34.3251 29.0084 33.8887 29.349C33.4647 29.68 33.0207 30.2053 33.0207 30.9276C33.0207 31.6498 33.4647 32.1752 33.8887 32.5061C34.3251 32.8467 34.8944 33.11 35.5085 33.3127C36.7473 33.7217 38.3955 33.9577 40.1705 33.9577C41.9455 33.9577 43.5937 33.7217 44.8326 33.3127C45.4467 33.11 46.0159 32.8467 46.4523 32.5061C46.8764 32.1752 47.3203 31.6498 47.3203 30.9276C47.3203 30.2053 46.8764 29.68 46.4523 29.349C46.0159 29.0084 45.4467 28.7452 44.8326 28.5425C43.5937 28.1335 41.9455 27.8975 40.1705 27.8975ZM30.6722 36.7336C33.7363 35.0876 37.6799 35.278 40.2573 37.8217C42.9517 35.6473 46.7236 35.2594 49.8335 36.9261L57.5521 41.0627C57.9178 41.2587 58.2525 41.5078 58.5453 41.8018C59.9461 43.2086 60.0865 45.1162 59.3312 46.5149C58.556 47.9505 56.8599 48.7884 54.9312 48.0535C54.86 48.0264 54.7895 47.999 54.7197 47.9713C54.6326 47.9367 54.5435 47.9004 54.453 47.8628C54.4326 48.3632 54.2996 48.848 54.0676 49.2771C53.7448 49.8742 53.2226 50.3752 52.5419 50.6349C51.8513 50.8984 51.0683 50.8866 50.2842 50.5755C49.7263 50.354 48.8881 49.8714 48.0994 49.3857C48.0437 49.7602 47.9243 50.1201 47.7473 50.4475C47.4245 51.0446 46.9023 51.5456 46.2215 51.8053C45.531 52.0688 44.748 52.057 43.9639 51.7459C43.2223 51.4516 42.2504 50.9505 41.5478 50.5731C41.0472 50.3042 40.5819 49.9861 40.152 49.6314L39.9967 49.7445C39.6938 49.9653 39.3747 50.1732 39.037 50.3605C38.3649 50.7335 36.9996 51.4723 36.0379 51.8548C35.2535 52.1668 34.47 52.1793 33.7787 51.9162C33.0973 51.6568 32.5744 51.1559 32.2509 50.5586C32.0727 50.2298 31.9527 49.8681 31.8969 49.4918C31.1096 49.9776 30.2736 50.46 29.7166 50.6815C28.9322 50.9935 28.1487 51.0059 27.4574 50.7428C26.776 50.4835 26.2531 49.9825 25.9296 49.3853C25.6963 48.9545 25.5626 48.4675 25.5424 47.9649C25.454 48.0017 25.367 48.0372 25.2817 48.0711C25.2149 48.0977 25.1474 48.124 25.0793 48.15C23.1485 48.8888 21.4492 48.0513 20.6716 46.6142C19.9141 45.2142 20.0529 43.3035 21.4541 41.893C21.7472 41.5979 22.0825 41.3479 22.4489 41.151L30.6722 36.7336ZM45.5685 47.7423L45.5693 47.7411L45.5201 47.6916L45.7796 47.4331L46.1325 46.9165L46.6965 46.0908L46.6966 46.0908L46.6969 46.091L46.6984 46.0921L46.705 46.0965L46.7315 46.1146L46.8351 46.1847C46.9253 46.2457 47.056 46.3336 47.2169 46.4408C47.5391 46.6553 47.9809 46.946 48.4604 47.2515C49.4555 47.8854 50.5014 48.5099 51.0219 48.7165C51.3855 48.8608 51.6493 48.8349 51.8289 48.7663C52.0184 48.694 52.1898 48.5451 52.3082 48.326C52.5315 47.9129 52.5394 47.2911 52.0666 46.7535C51.674 46.5576 51.3316 46.3817 51.0864 46.2543C50.9625 46.1899 50.8631 46.1377 50.7945 46.1016L50.7153 46.0597L50.6943 46.0485L50.6888 46.0456L50.6872 46.0448L50.6868 46.0445L50.6867 46.0445C50.6866 46.0444 50.6866 46.0444 51.1573 45.1621L51.628 44.2798L51.628 44.2798L51.6282 44.2799L51.6292 44.2805L51.6338 44.2829L51.6526 44.2929L51.7272 44.3324C51.7927 44.3669 51.8885 44.4171 52.0086 44.4795C52.2489 44.6044 52.5859 44.7775 52.9718 44.97C53.0644 45.0162 53.1595 45.0634 53.2565 45.1111L53.2576 45.11L53.2608 45.1132C53.9775 45.4658 54.7933 45.8487 55.4574 46.1123C55.5184 46.1365 55.5804 46.1606 55.6434 46.1846C56.5854 46.5436 57.2477 46.1641 57.5714 45.5646C57.915 44.9283 57.8949 43.9831 57.1281 43.213C56.9746 43.0589 56.7991 42.9283 56.6074 42.8256L48.8888 38.6889C46.3549 37.3309 43.2504 37.7437 41.1613 39.683V47.8605C41.5726 48.234 42.0177 48.5552 42.4943 48.8112C43.1961 49.1882 44.078 49.6394 44.7016 49.8869C45.0652 50.0312 45.329 50.0053 45.5086 49.9367C45.6981 49.8644 45.8695 49.7155 45.9879 49.4964C46.2233 49.0611 46.2193 48.3938 45.6655 47.8377L45.575 47.7467L45.5713 47.7442L45.5693 47.7428L45.5687 47.7424L45.5685 47.7423ZM39.1613 47.8786L38.8189 48.1281C38.5728 48.3074 38.323 48.4695 38.0667 48.6117C37.381 48.9922 36.1234 49.6684 35.2987 49.9964C34.9346 50.1413 34.6703 50.1155 34.4902 50.047C34.3002 49.9747 34.1283 49.8256 34.0095 49.6061C33.7732 49.1699 33.7767 48.5011 34.3308 47.9433L34.4306 47.8429L34.4315 47.8423L34.4321 47.8419L34.4322 47.8418C34.4322 47.8418 34.4322 47.8418 34.4322 47.8417L34.432 47.8414L34.4819 47.7912L34.2187 47.5297L33.8674 47.0166L33.3024 46.1914L33.3024 46.1915L33.3021 46.1917L33.3005 46.1927L33.294 46.1972L33.2674 46.2153L33.1639 46.2856C33.0737 46.3467 32.943 46.4348 32.782 46.5422C32.4599 46.7573 32.0182 47.0486 31.5387 47.3548C30.5436 47.9902 29.4978 48.6161 28.9774 48.8231C28.6133 48.9679 28.349 48.9422 28.1689 48.8736C27.9789 48.8013 27.8071 48.6522 27.6882 48.4327C27.4633 48.0175 27.4556 47.3915 27.9334 46.8512C28.3266 46.6545 28.6695 46.4779 28.9149 46.3501C29.0389 46.2855 29.1382 46.2333 29.2068 46.197L29.286 46.155L29.307 46.1439L29.3126 46.1409L29.3141 46.1401L29.3146 46.1399L29.3147 46.1398C29.3147 46.1398 29.3148 46.1397 28.8432 45.2579L28.3716 44.3761L28.3716 44.3761L28.3714 44.3762L28.3704 44.3767L28.3659 44.3792L28.3471 44.3892L28.2724 44.4287C28.207 44.4633 28.1112 44.5137 27.9911 44.5763C27.7507 44.7014 27.4138 44.8749 27.0279 45.0678C26.9352 45.1142 26.8399 45.1615 26.7429 45.2094L26.7418 45.2083L26.7386 45.2115C26.0221 45.5649 25.2065 45.9486 24.5426 46.2127C24.4842 46.2359 24.4248 46.259 24.3646 46.2821C23.4205 46.6433 22.7559 46.2635 22.4306 45.6624C22.0853 45.0242 22.1048 44.0758 22.8729 43.3026C23.0269 43.1476 23.2029 43.0163 23.3954 42.9129L31.6187 38.4954C34.0858 37.1701 37.0842 37.4313 38.9257 39.3189C39.0042 39.3993 39.0516 39.4506 39.1078 39.5115L39.1078 39.5115L39.147 39.5539C39.1517 39.559 39.1565 39.5641 39.1613 39.5693V47.8786Z" fill="#374656"/>
</svg>
