<svg width="80" height="80" viewBox="0 0 80 80" fill="none" xmlns="http://www.w3.org/2000/svg">
<circle opacity="0.5" cx="40" cy="40" r="40" fill="#CCD4DE"/>
<path d="M32.7282 24.6226C32.2636 24.3653 31.7115 24.2402 31.1559 24.2402H31.1025C29.3196 24.2402 27.8742 25.7207 27.8699 27.5499C27.8594 32.0211 27.8659 39.9056 27.8727 46.9587C27.8731 47.3464 27.8705 47.7294 27.8679 48.1041C27.8636 48.7223 27.8595 49.3183 27.8693 49.8769C27.8852 50.7757 27.9374 51.598 28.087 52.2948C28.2365 52.9909 28.4876 53.5826 28.9174 54.0002C29.315 54.3864 29.846 54.605 30.5364 54.6398V63.3337V63.5337H30.7364H39.1697H45.5175H45.7175V63.3337V54.6407C46.2002 54.6205 46.6044 54.5259 46.9546 54.3572C47.3527 54.1655 47.6684 53.8843 47.9464 53.5331C48.2227 53.1842 48.4647 52.7623 48.7142 52.2863C48.8241 52.0765 48.9329 51.8615 49.0466 51.6366C49.1978 51.3377 49.3578 51.0215 49.5408 50.6773L56.4817 37.6302C56.4817 37.6302 56.4817 37.6302 56.4818 37.6302C56.6653 37.2854 56.5769 36.8625 56.273 36.6167L55.564 36.0423C54.6998 35.2581 53.5436 34.8591 52.3697 34.9382L52.3689 34.9383C51.1696 35.0244 50.0597 35.5945 49.3053 36.5137C49.305 36.514 49.3048 36.5143 49.3046 36.5146L48.8417 37.0662L48.8321 23.428C48.8308 21.5952 47.3709 20.0955 45.584 20.0955C45.0039 20.0955 44.4941 20.2541 44.0089 20.5235V19.7866C44.0089 17.9555 42.5962 16.467 40.8061 16.467H40.7499C39.2319 16.467 37.9613 17.5433 37.6124 18.9908C37.1188 18.6837 36.5447 18.5182 35.9562 18.5163L35.9556 18.5163C34.1665 18.5159 32.7282 20.0148 32.7282 21.8474V24.6226ZM44.0377 35.7179V35.7178C44.0365 35.4212 44.037 32.5172 44.0376 29.0314L44.0377 28.3806V28.3805C44.0377 27.2396 44.038 26.0586 44.0383 24.9108C44.0384 24.3845 44.0385 23.8652 44.0386 23.36C44.0738 22.4475 44.7726 21.7398 45.5999 21.7398C46.4468 21.7398 47.1608 22.4845 47.1614 23.4298L47.1729 39.3515V39.3516C47.1733 39.7012 47.3973 40.0094 47.7279 40.1252C48.0581 40.2411 48.4277 40.1417 48.6522 39.8744L48.6522 39.8744L50.5946 37.5604L50.5946 37.5604L50.5964 37.5582C51.0596 36.99 51.7436 36.6349 52.4863 36.5789C53.2116 36.5323 53.9232 36.7828 54.4509 37.2691L54.4524 37.2705C54.4575 37.2751 54.463 37.28 54.4688 37.2849C54.4741 37.2894 54.4797 37.2941 54.4855 37.2988C54.4858 37.299 54.486 37.2992 54.4863 37.2994L54.6874 37.4626L48.0606 49.9152L48.0606 49.9153C47.8505 50.3104 47.6749 50.6765 47.5173 51.005C47.4764 51.0903 47.4367 51.1732 47.3979 51.2533C47.208 51.6455 47.042 51.9696 46.8601 52.2308C46.68 52.4895 46.4898 52.6779 46.256 52.8037C46.0225 52.9295 45.73 53.0011 45.3326 53.0011H44.367H44.167V53.2011V61.8899H39.1697H32.1088V53.2011V53.0011H31.9088H30.7364C30.3689 53.0011 30.1279 52.8592 29.9538 52.5995C29.7693 52.3243 29.6541 51.9064 29.5896 51.3504C29.4992 50.5716 29.5135 49.5879 29.5297 48.4705C29.5366 47.989 29.544 47.4826 29.5435 46.9571C29.5366 39.9046 29.5301 32.0222 29.5407 27.5539C29.5429 26.6131 30.2547 25.8839 31.1025 25.8839H31.1559C32.0096 25.8839 32.7282 26.6026 32.7282 27.5425V35.7198C32.7282 36.1778 33.1063 36.5417 33.5636 36.5417C34.0212 36.5417 34.399 36.1777 34.399 35.7198V21.8474C34.399 20.8993 35.0977 20.156 35.949 20.156C36.7946 20.156 37.4935 20.8989 37.4935 21.8474V35.7205C37.4935 36.1784 37.8716 36.5423 38.3288 36.5423C38.7865 36.5423 39.1642 36.1783 39.1642 35.7205V19.7875C39.1642 18.847 39.8965 18.1107 40.7499 18.1107H40.8061C41.6549 18.1107 42.3679 18.8495 42.3679 19.7939V23.3366C42.367 23.3693 42.3667 23.4005 42.3667 23.4327V23.4347C42.3667 23.4453 42.3667 23.4618 42.3679 23.4803C42.3679 24.5333 42.3676 25.6445 42.3674 26.7508C42.3672 27.2978 42.3671 27.8436 42.367 28.3805C42.3661 32.1496 42.3654 35.4056 42.367 35.7239C42.3688 36.1816 42.748 36.5442 43.2052 36.5426C43.6624 36.541 44.0394 36.1759 44.0377 35.7179Z" fill="#788392" stroke="#788392" stroke-width="0.4"/>
<path d="M28.3334 36.043L47.7942 36.043" stroke="#788392" stroke-width="2"/>
<path d="M28.9663 39.373L48.4271 39.373" stroke="#788392" stroke-width="2"/>
<path d="M28.6755 42.1816L51.0711 46.0439" stroke="#788392" stroke-width="2"/>
<path d="M28.6755 45.7812L49.3474 49.3463" stroke="#788392" stroke-width="2"/>
<path d="M28.6755 49.3057L47.9359 52.6273" stroke="#788392" stroke-width="2"/>
</svg>
