<svg width="80" height="80" viewBox="0 0 80 80" fill="none" xmlns="http://www.w3.org/2000/svg">
<circle opacity="0.5" cx="40" cy="40" r="40" fill="#CCD4DE"/>
<path d="M25.0085 33.1816C24.5809 33.1816 24.2339 33.5289 24.2339 33.9568C24.2339 34.3847 24.5809 34.732 25.0085 34.732C25.4361 34.732 25.7831 34.3847 25.7831 33.9568C25.7831 33.5289 25.4361 33.1816 25.0085 33.1816Z" fill="#788392"/>
<path d="M58.4252 38.3846C58.9559 37.8102 59.2472 37.0688 59.2472 36.2825C59.2472 34.5728 57.8572 33.1819 56.1486 33.1819H44.7611C44.4012 31.4149 42.8364 30.0812 40.9659 30.0812H29.397L26.1161 24.6099C25.2356 23.1405 23.3331 22.6643 21.8648 23.547C20.3966 24.4284 19.9214 26.3317 20.8027 27.8011L22.1696 30.0812H21.9101C20.6287 30.0812 19.5862 31.1244 19.5862 32.4067V38.608C19.5862 40.7452 21.3237 42.4839 23.4593 42.4839H25.7832C25.7832 43.2855 25.7832 49.8524 25.7832 50.6526C24.858 51.1896 24.234 52.191 24.234 53.3362C24.234 55.0459 25.6239 56.4368 27.3325 56.4368C29.041 56.4368 30.431 55.0459 30.431 53.3362C30.431 52.7716 30.2787 52.2345 30.0142 51.7781H48.3545C48.09 52.2345 47.9377 52.7716 47.9377 53.3362C47.9377 55.0459 49.3277 56.4368 51.0362 56.4368C52.7447 56.4368 54.1347 55.0459 54.1347 53.3362C54.1347 52.191 53.5106 51.1897 52.5854 50.6526C52.5854 49.8524 52.5854 43.2855 52.5854 42.4839H56.9234C58.2047 42.4839 59.2472 41.4406 59.2472 40.1584C59.2472 39.4946 58.9692 38.8475 58.4252 38.3846ZM22.1311 27.0033C21.6905 26.2689 21.9277 25.3171 22.6622 24.8762C23.396 24.4352 24.3471 24.6724 24.7875 25.4074L27.5903 30.0813H23.9762L22.1311 27.0033ZM27.3325 54.8865C26.4782 54.8865 25.7832 54.191 25.7832 53.3362C25.7832 52.4813 26.4782 51.7859 27.3325 51.7859C28.1867 51.7859 28.8817 52.4813 28.8817 53.3362C28.8817 54.191 28.1867 54.8865 27.3325 54.8865ZM27.3325 50.2355V48.6852C28.3485 48.6852 48.9883 48.6852 51.0361 48.6852V50.2355H27.3325ZM27.3325 47.1349V42.4839H28.8817V47.1349H27.3325ZM30.431 47.1349V42.4839H47.9376V47.1349H30.431ZM49.4868 47.1349V42.4839H51.0361V47.1349H49.4868ZM51.0361 54.8865C50.1818 54.8865 49.4868 54.191 49.4868 53.3362C49.4868 52.4813 50.1818 51.7859 51.0361 51.7859C51.8904 51.7859 52.5854 52.4813 52.5854 53.3362C52.5854 54.191 51.8904 54.8865 51.0361 54.8865ZM56.9233 40.9335H23.4593C22.1779 40.9335 21.1354 39.8903 21.1354 38.608V32.4067C21.1354 31.9793 21.4829 31.6315 21.9101 31.6315C22.9004 31.6315 39.9301 31.6315 40.9659 31.6315C42.2473 31.6315 43.2898 32.6748 43.2898 33.957V38.608C43.2898 39.0361 43.6366 39.3832 44.0644 39.3832C45.4331 39.3832 54.8666 39.3832 56.9233 39.3832C57.351 39.3832 57.6979 39.7304 57.6979 40.1584C57.6979 40.5857 57.3504 40.9335 56.9233 40.9335ZM57.2439 37.3785C56.9511 37.6715 56.5621 37.8329 56.1486 37.8329H44.8391V34.7322H56.1486C57.0029 34.7322 57.6979 35.4276 57.6979 36.2825C57.6979 36.6963 57.5366 37.0855 57.2439 37.3785Z" fill="#788392"/>
<path d="M39.4167 33.1816H28.1071C27.6793 33.1816 27.3325 33.5288 27.3325 33.9568C27.3325 34.3849 27.6793 34.732 28.1071 34.732H39.4167C39.8446 34.732 40.1914 34.3849 40.1914 33.9568C40.1914 33.5288 39.8446 33.1816 39.4167 33.1816Z" fill="#788392"/>
</svg>
