<svg width="80" height="80" viewBox="0 0 80 80" fill="none" xmlns="http://www.w3.org/2000/svg">
<circle opacity="0.5" cx="40" cy="40" r="40" fill="#CCD4DE"/>
<path fill-rule="evenodd" clip-rule="evenodd" d="M33.1739 35.1484L35.5893 31.584L41.8111 22.4022C42.1209 21.945 42.7427 21.8255 43.1999 22.1354L54.0416 29.482C54.4988 29.7919 54.6183 30.4136 54.3085 30.8708L51.7585 34.6339L51.4099 35.1484H50.4853C51.031 34.2094 51.0285 33.0414 50.465 32.1004L50.3879 31.9716C50.2872 31.8035 50.2382 31.6095 50.2468 31.4138L50.2624 31.0618C50.3083 30.0208 49.8108 29.0305 48.9482 28.4459L47.4549 27.4341L46.3152 26.6618C45.1852 25.896 43.6807 25.9897 42.6544 26.8896L42.4947 27.0296C42.2869 27.2118 41.9997 27.2736 41.7353 27.193C40.5611 26.8346 39.2905 27.2834 38.6018 28.2997L33.9609 35.1484H33.1739ZM48.3934 34.683L48.0781 35.1484H46.8799C46.5235 32.958 44.6229 31.2861 42.3319 31.2861C40.0408 31.2861 38.1403 32.958 37.7839 35.1484H36.3769L40.2575 29.4216C40.454 29.1317 40.8165 29.0036 41.1515 29.1059C42.0781 29.3886 43.085 29.1721 43.8133 28.5334L43.973 28.3934C44.3151 28.0934 44.8166 28.0622 45.1933 28.3174L46.333 29.0897L47.8262 30.1016C48.1138 30.2965 48.2796 30.6266 48.2643 30.9736L48.2488 31.3256C48.2228 31.9128 48.37 32.4948 48.672 32.9991L48.7491 33.1279C48.9489 33.4615 48.9371 33.8807 48.719 34.2026L48.3934 34.683ZM39.832 35.1484C40.1528 34.0714 41.1506 33.2861 42.3319 33.2861C43.5131 33.2861 44.5109 34.0714 44.8317 35.1484H39.832ZM30.758 35.1484L33.9336 30.4621L34.9148 29.0141L34.1715 28.8977L33.4371 28.7828C33.1782 28.7422 32.9255 28.8857 32.8278 29.1289L32.7674 29.279C32.4767 30.002 31.8354 30.5253 31.0688 30.6651C30.956 30.6857 30.8686 30.7754 30.8508 30.8886L30.184 35.1484H30.758ZM35.681 27.1097C35.8347 27.1337 35.9838 27.173 36.1264 27.226L36.8207 26.2015L29.8705 25.1135C29.3248 25.0281 28.8133 25.4011 28.7279 25.9468L27.4813 33.9098L27.2874 35.1484H28.1596L28.8749 30.5793C29.0242 29.6256 29.7604 28.8707 30.71 28.6976C30.8011 28.681 30.8773 28.6188 30.9118 28.5329L30.9721 28.3828C31.4173 27.2757 32.5675 26.6223 33.7464 26.8068L34.4808 26.9218L35.681 27.1097ZM25.2631 35.1484L25.5054 33.6005L26.7519 25.6375C27.0082 24.0005 28.5429 22.8813 30.1798 23.1375L38.0609 24.3712L40.1555 21.2803C41.0849 19.9087 42.9503 19.5502 44.3219 20.4797L55.1636 27.8264C56.5352 28.7558 56.8936 30.6212 55.9642 31.9928L53.8111 35.1701C55.2966 35.3494 56.4479 36.6145 56.4479 38.1484V42.6826C57.4525 42.7888 58.2352 43.6387 58.2352 44.6714V49.9234C58.2352 50.9561 57.4525 51.806 56.4479 51.9122V56.4469C56.4479 58.1038 55.1047 59.4469 53.4479 59.4469H24C22.3431 59.4469 21 58.1038 21 56.4469V38.1484C21 36.4915 22.3431 35.1484 24 35.1484H25.2631ZM54.4479 38.1484V42.6714H51.821C51.7613 42.6714 51.7041 42.6689 51.6446 42.6653C50.8733 42.6187 45.2277 42.4436 45.2277 47.2974C45.2277 52.1512 50.8733 51.9761 51.6446 51.9295C51.7041 51.9259 51.7613 51.9234 51.821 51.9234H54.4479V56.4469C54.4479 56.9992 54.0002 57.4469 53.4479 57.4469H24C23.4477 57.4469 23 56.9992 23 56.4469V38.1484C23 37.5961 23.4477 37.1484 24 37.1484H53.4479C54.0002 37.1484 54.4479 37.5961 54.4479 38.1484ZM56.2352 49.9234V44.6714H51.821C51.7047 44.6714 51.603 44.6664 51.524 44.6617C51.2142 44.643 49.9492 44.6099 48.8401 45.0198C48.31 45.2156 47.9236 45.4739 47.6733 45.7815C47.4475 46.0591 47.2277 46.5018 47.2277 47.2974C47.2277 48.093 47.4475 48.5357 47.6733 48.8133C47.9236 49.1209 48.31 49.3792 48.8401 49.5751C49.9492 49.9849 51.2142 49.9519 51.524 49.9332C51.603 49.9284 51.7047 49.9234 51.821 49.9234H56.2352Z" fill="#788392"/>
</svg>
