<svg width="80" height="80" viewBox="0 0 80 80" fill="none" xmlns="http://www.w3.org/2000/svg">
<circle opacity="0.5" cx="40" cy="40" r="40" fill="#CCD4DE"/>
<path d="M55.7814 56.4561L54.1604 46.9598C53.9858 45.9367 53.2604 45.1148 52.2673 44.815L47.8953 43.4949C47.8048 42.4254 47.3666 41.4164 46.6373 40.6178C46.054 39.979 45.3203 39.5138 44.5116 39.2572C44.65 39.1035 44.7783 38.9503 44.896 38.8005C45.9357 37.4773 46.4923 36.0195 46.634 35.0247H46.9713C47.8486 35.0247 48.5623 34.3105 48.5623 33.4326V32.6165C48.5623 32.0306 48.2329 31.4997 47.7376 31.2242V29.2617L47.201 28.7248L46.6645 29.2617V31.4649C46.4556 31.5012 46.2062 31.5639 45.9512 31.6714C45.925 31.6809 45.8996 31.692 45.8756 31.7052C45.818 31.7315 45.7603 31.7592 45.7028 31.7904V27.4633C45.7028 26.2679 44.731 25.2953 43.5364 25.2953H42.0553C41.5445 25.2953 41.0455 25.4735 40.65 25.797L40.5047 25.9159C40.2377 26.1343 39.9008 26.2546 39.5559 26.2546C39.2111 26.2546 38.8741 26.1343 38.6071 25.9159L38.4618 25.797C38.0664 25.4735 37.5674 25.2953 37.0565 25.2953H35.5753C34.3807 25.2953 33.4089 26.2679 33.4089 27.4633V31.7904C33.3514 31.7592 33.2937 31.7315 33.2361 31.7052C33.2121 31.692 33.1867 31.6809 33.1606 31.6714C32.9055 31.5639 32.6561 31.5012 32.4472 31.4649V25.894C32.4472 24.1554 33.8608 22.7409 35.5982 22.7409H43.5134C45.2509 22.7409 46.6644 24.1554 46.6644 25.894V26.7381L46.6645 29.2617L47.201 28.7248L47.7376 29.2617L47.7375 26.7381V25.894C47.7375 23.5633 45.8425 21.667 43.5134 21.667H35.5982C33.269 21.667 31.3741 23.5633 31.3741 25.894V31.2243C30.8788 31.4998 30.5495 32.0306 30.5495 32.6166V33.4327C30.5495 34.3106 31.2632 35.0248 32.1404 35.0248H32.4777C32.6194 36.0196 33.1761 37.4773 34.2158 38.8006C34.3333 38.9502 34.4616 39.1033 34.5998 39.2568C32.7406 39.8478 31.3847 41.5206 31.2165 43.4949L26.8443 44.815C25.8512 45.1148 25.1258 45.9367 24.9512 46.9598L24.2929 50.8162L23.8651 53.3222L24.7315 51.4358L24.9229 53.503L25.3507 50.997L26.009 47.1406C26.1146 46.5216 26.5535 46.0244 27.1542 45.8431L31.198 44.6221V45.6842C30.2711 45.855 29.4824 46.4921 29.1576 47.3749C29.0713 47.6092 29.0177 47.8546 28.9982 48.1041L28.6074 53.1239C28.5779 53.502 28.7087 53.8786 28.966 54.1568C29.2232 54.4351 29.5882 54.5948 29.9671 54.5948H30.6361C30.9324 54.5948 31.1727 54.3545 31.1727 54.0578C31.1727 53.7612 30.9324 53.5209 30.6361 53.5209H29.9671C29.8863 53.5209 29.8086 53.487 29.7537 53.4276C29.6989 53.3683 29.671 53.2881 29.6773 53.2075L30.0681 48.1876C30.08 48.0364 30.1124 47.8878 30.1646 47.7459C30.3906 47.1319 31.0009 46.716 31.6834 46.7112L31.7718 46.7105C31.776 46.7105 31.78 46.7105 31.7841 46.7105C32.4475 46.7105 33.0346 47.0869 33.2823 47.672C33.3518 47.8361 33.394 48.0096 33.4079 48.1876L33.7989 53.2076C33.8051 53.2881 33.7773 53.3683 33.7225 53.4276C33.6676 53.4869 33.5898 53.5209 33.5091 53.5209H32.8401C32.5437 53.5209 32.3035 53.7613 32.3035 54.0578C32.3035 54.3544 32.5437 54.5948 32.8401 54.5948H33.5091C33.888 54.5948 34.253 54.4352 34.5102 54.1568C34.7675 53.8784 34.8983 53.502 34.8688 53.124L34.4778 48.1041C34.4549 47.8103 34.3851 47.5239 34.2704 47.253C33.917 46.4182 33.1612 45.8378 32.2711 45.6807V44.2981L34.1156 43.7412C34.2834 44.0949 34.6159 44.8592 35.2747 46.5069C35.9386 48.1693 36.7638 50.3002 37.5553 52.3717C37.5609 52.3891 37.5674 52.4061 37.5747 52.4227C38.1029 53.8057 38.6152 55.1602 39.0534 56.3287C39.132 56.5382 39.3321 56.677 39.5558 56.677C39.7794 56.677 39.9796 56.5382 40.0582 56.3287C40.4963 55.1602 41.0086 53.8057 41.5368 52.4227C41.5442 52.4061 41.5507 52.3891 41.5563 52.3717C42.3472 50.3014 43.1719 48.1719 43.8356 46.51C44.4952 44.8602 44.828 44.0952 44.9959 43.7412L46.8404 44.2981V47.4696C45.5624 47.718 44.5944 48.8459 44.5944 50.1965C44.5944 51.7284 45.8398 52.9747 47.3707 52.9747C48.9016 52.9747 50.1471 51.7284 50.1471 50.1965C50.1471 48.8504 49.1854 47.7252 47.9136 47.4719V44.6222L51.9574 45.8431C52.5582 46.0245 52.9969 46.5216 53.1026 47.1407L54.7236 56.637C54.7505 56.7944 54.7086 56.9484 54.6056 57.0705C54.5027 57.1926 54.3581 57.2599 54.1984 57.2599H24.9131C24.7535 57.2599 24.6089 57.1926 24.5059 57.0705C24.403 56.9484 24.3611 56.7945 24.388 56.637L24.9229 53.503C24.9728 53.2106 24.7315 51.4358 24.7315 51.4358C24.7315 51.4358 23.9151 53.03 23.8651 53.3222L23.3302 56.4562C23.2504 56.924 23.38 57.4003 23.6857 57.763C23.9916 58.1257 24.4389 58.3337 24.9131 58.3337H54.1984C54.6726 58.3337 55.1201 58.1257 55.4259 57.763C55.7316 57.4002 55.8612 56.9239 55.7814 56.4561ZM46.6708 32.5588C46.6708 32.5588 46.9306 32.5224 47.0961 32.4938C47.2351 32.4698 47.451 32.4265 47.451 32.4265C47.4749 32.486 47.489 32.55 47.489 32.6166V33.4327C47.489 33.7184 47.2567 33.9509 46.9712 33.9509H46.6708V32.5588ZM32.4407 33.9509H32.1404C31.8548 33.9509 31.6225 33.7184 31.6225 33.4327V32.6166C31.6225 32.55 31.6367 32.486 31.6605 32.4266C31.7403 32.4685 31.8302 32.4901 31.9227 32.4888C31.9268 32.4895 32.1557 32.4882 32.4407 32.5591V33.9509ZM33.5138 34.553V33.1423C33.6764 33.1911 33.8543 33.1844 34.0185 33.1159C34.3001 32.9983 34.482 32.7252 34.482 32.4201V27.4633C34.482 26.8601 34.9725 26.3692 35.5753 26.3692H37.0564C37.3203 26.3692 37.5782 26.4612 37.7825 26.6284L37.9278 26.7473C38.3858 27.1221 38.964 27.3284 39.5558 27.3284C40.1475 27.3284 40.7257 27.122 41.1838 26.7473L41.3291 26.6284C41.5333 26.4612 41.7912 26.3692 42.0552 26.3692H43.5362C44.1391 26.3692 44.6296 26.8601 44.6296 27.4633V32.4201C44.6296 32.7252 44.8115 32.9984 45.0931 33.1159C45.1871 33.1552 45.2856 33.1742 45.3832 33.1742C45.456 33.1742 45.5282 33.1636 45.5977 33.1428V34.553C45.5977 35.3369 45.0561 36.8593 44.0523 38.1368C43.7199 38.5599 43.2925 39.0146 42.7662 39.4119C42.7496 39.423 42.7336 39.4351 42.7184 39.448C41.9032 40.0512 40.855 40.5132 39.5558 40.5132C38.2566 40.5132 37.2084 40.0512 36.3931 39.448C36.3779 39.4351 36.362 39.423 36.3454 39.4119C35.8192 39.0146 35.3918 38.5599 35.0592 38.1368C34.0555 36.8594 33.5138 35.3369 33.5138 34.553ZM43.071 43.228L39.5558 45.8573L36.0405 43.228C36.3891 42.7846 36.5844 42.2155 36.5844 41.7076V40.8421C37.4111 41.287 38.3974 41.5872 39.5558 41.5872C40.7141 41.5872 41.7006 41.287 42.5272 40.8421V41.7076C42.5272 42.2155 42.7225 42.7846 43.071 43.228ZM35.145 42.6287C34.8585 42.5194 34.5408 42.5015 34.2403 42.5831C34.2271 42.5862 34.2143 42.5897 34.2017 42.5934L32.348 43.1532C32.6615 41.6104 33.9133 40.3825 35.5113 40.1447V41.7076C35.5113 42.0445 35.361 42.3928 35.145 42.6287ZM36.6013 46.939C36.6003 46.9365 36.5993 46.934 36.5984 46.9315C36.5712 46.8627 36.5443 46.7948 36.5177 46.7277C36.5129 46.7156 36.5081 46.7035 36.5033 46.6914C36.4773 46.6257 36.4514 46.5606 36.426 46.4965C36.4242 46.492 36.4224 46.4875 36.4206 46.483C36.3411 46.2829 36.2644 46.0911 36.1907 45.9072C36.1854 45.8939 36.18 45.8804 36.1746 45.8671C36.1534 45.8144 36.1326 45.7625 36.1119 45.7112C36.1044 45.6924 36.0968 45.6738 36.0893 45.6552C36.0693 45.6055 36.0494 45.556 36.0298 45.5077C36.0239 45.4932 36.0182 45.4792 36.0124 45.4648C35.9768 45.377 35.942 45.2914 35.9081 45.208C35.899 45.1854 35.8896 45.1624 35.8805 45.1402C35.8672 45.1077 35.8542 45.076 35.8412 45.0441C35.8272 45.0098 35.8132 44.9757 35.7994 44.9422C35.7943 44.9296 35.7889 44.9164 35.7837 44.9039C35.7796 44.8939 35.7758 44.8847 35.7717 44.8747C35.7097 44.724 35.6508 44.582 35.595 44.4485L35.5936 44.4452C35.5638 44.3741 35.5347 44.3046 35.5067 44.2385C35.4922 44.2042 35.4779 44.1704 35.4638 44.1374L38.4871 46.3985L37.2238 46.9356C37.2216 46.9365 37.2193 46.9374 37.2171 46.9384L36.6897 47.1626C36.6598 47.0869 36.6305 47.0128 36.6013 46.939ZM37.8816 50.2267C37.7756 49.9515 37.6688 49.6747 37.5618 49.3982C37.3945 48.9657 37.2347 48.5545 37.0818 48.1627L37.282 48.0776L38.1002 49.0293L37.8816 50.2267ZM39.5662 54.5907C39.5508 54.5588 39.5324 54.5286 39.5113 54.5006C39.2688 53.8593 38.9611 53.0478 38.6205 52.155L39.1215 49.4103H39.9901L40.4911 52.155C40.1342 53.0903 39.8136 53.9361 39.5662 54.5907ZM40.1913 48.3365H38.9202L38.3187 47.6369L39.5558 47.111L40.7929 47.6369L40.1913 48.3365ZM41.5497 49.3982C41.4427 49.6747 41.336 49.9515 41.23 50.2267L41.0114 49.0292L41.8295 48.0775L42.0298 48.1627C41.8768 48.5544 41.717 48.9657 41.5497 49.3982ZM43.6049 44.2385C43.5784 44.3012 43.5507 44.367 43.5226 44.4342C43.519 44.4429 43.5152 44.4517 43.5116 44.4606C43.4838 44.5272 43.4554 44.5952 43.4261 44.666C43.4241 44.6707 43.4221 44.6756 43.4202 44.6803C43.3949 44.7414 43.3689 44.8044 43.3425 44.8687C43.3376 44.8807 43.3329 44.8918 43.328 44.9039C43.3221 44.9183 43.3158 44.9336 43.3099 44.9481C43.2981 44.9768 43.2862 45.006 43.2741 45.0352C43.2594 45.0712 43.2447 45.1071 43.2296 45.144C43.2248 45.1557 43.2199 45.168 43.215 45.1798C43.1777 45.2714 43.1393 45.3658 43.1001 45.4627C43.0939 45.4779 43.0879 45.4928 43.0817 45.5082C43.0623 45.5561 43.0426 45.605 43.0227 45.6542C43.015 45.6735 43.0072 45.6927 42.9994 45.7122C42.9789 45.7629 42.9583 45.8144 42.9374 45.8665C42.9315 45.881 42.9256 45.8959 42.9197 45.9105C42.8469 46.0919 42.7714 46.281 42.693 46.4781C42.6905 46.4846 42.6879 46.491 42.6853 46.4976C42.66 46.5612 42.6344 46.626 42.6084 46.6912C42.6037 46.7034 42.5988 46.7156 42.5939 46.7278C42.5672 46.7953 42.5402 46.8634 42.5128 46.9327L42.5113 46.9365C42.4818 47.0111 42.4522 47.0862 42.422 47.1628L41.8941 46.9383C41.8922 46.9376 41.8904 46.9368 41.8886 46.936L40.6246 46.3987L43.6479 44.1375C43.6337 44.1704 43.6194 44.2041 43.6049 44.2385ZM44.9098 42.5935L44.9082 42.593C44.5969 42.4995 44.2648 42.515 43.9666 42.6287C43.7506 42.3928 43.6003 42.0445 43.6003 41.7076V40.1439C45.2083 40.3811 46.4563 41.5975 46.7658 43.1538L44.9098 42.5935ZM49.074 50.1965C49.074 51.1363 48.3099 51.9009 47.3707 51.9009C46.4316 51.9009 45.6675 51.1363 45.6675 50.1965C45.6675 49.2566 46.4316 48.492 47.3707 48.492C48.3099 48.492 49.074 49.2566 49.074 50.1965Z" fill="#788392"/>
<path d="M47.7376 29.2617V31.2242C48.2329 31.4997 48.5623 32.0306 48.5623 32.6165V33.4326C48.5623 34.3105 47.8486 35.0247 46.9713 35.0247H46.634C46.4923 36.0195 45.9357 37.4773 44.896 38.8005C44.7783 38.9503 44.65 39.1035 44.5116 39.2572C45.3203 39.5138 46.054 39.979 46.6373 40.6178C47.3666 41.4164 47.8048 42.4254 47.8953 43.4949L52.2673 44.815C53.2604 45.1148 53.9858 45.9367 54.1604 46.9598L55.7814 56.4561C55.8612 56.9239 55.7316 57.4002 55.4259 57.763C55.1201 58.1257 54.6726 58.3337 54.1984 58.3337H24.9131C24.4389 58.3337 23.9916 58.1257 23.6857 57.763C23.38 57.4003 23.2504 56.924 23.3302 56.4562L23.8651 53.3222M47.7376 29.2617L47.201 28.7248L46.6645 29.2617M47.7376 29.2617L47.7375 26.7381V25.894C47.7375 23.5633 45.8425 21.667 43.5134 21.667H35.5982C33.269 21.667 31.3741 23.5633 31.3741 25.894V31.2243C30.8788 31.4998 30.5495 32.0306 30.5495 32.6166V33.4327C30.5495 34.3106 31.2632 35.0248 32.1404 35.0248H32.4777C32.6194 36.0196 33.1761 37.4773 34.2158 38.8006C34.3333 38.9502 34.4616 39.1033 34.5998 39.2568C32.7406 39.8478 31.3847 41.5206 31.2165 43.4949L26.8443 44.815C25.8512 45.1148 25.1258 45.9367 24.9512 46.9598L24.2929 50.8162L23.8651 53.3222M46.6645 29.2617V31.4649C46.4556 31.5012 46.2062 31.5639 45.9512 31.6714C45.925 31.6809 45.8996 31.692 45.8756 31.7052C45.818 31.7315 45.7603 31.7592 45.7028 31.7904V27.4633C45.7028 26.2679 44.731 25.2953 43.5364 25.2953H42.0553C41.5445 25.2953 41.0455 25.4735 40.65 25.797L40.5047 25.9159C40.2377 26.1343 39.9008 26.2546 39.5559 26.2546C39.2111 26.2546 38.8741 26.1343 38.6071 25.9159L38.4618 25.797C38.0664 25.4735 37.5674 25.2953 37.0565 25.2953H35.5753C34.3807 25.2953 33.4089 26.2679 33.4089 27.4633V31.7904C33.3514 31.7592 33.2937 31.7315 33.2361 31.7052C33.2121 31.692 33.1867 31.6809 33.1606 31.6714C32.9055 31.5639 32.6561 31.5012 32.4472 31.4649V25.894C32.4472 24.1554 33.8608 22.7409 35.5982 22.7409H43.5134C45.2509 22.7409 46.6644 24.1554 46.6644 25.894V26.7381L46.6645 29.2617ZM24.7315 51.4358C24.7315 51.4358 24.9728 53.2106 24.9229 53.503M24.7315 51.4358C24.7315 51.4358 23.9151 53.03 23.8651 53.3222M24.7315 51.4358L24.9229 53.503M24.7315 51.4358L23.8651 53.3222M24.9229 53.503L24.388 56.637C24.3611 56.7945 24.403 56.9484 24.5059 57.0705C24.6089 57.1926 24.7535 57.2599 24.9131 57.2599H54.1984C54.3581 57.2599 54.5027 57.1926 54.6056 57.0705C54.7086 56.9484 54.7505 56.7944 54.7236 56.637L53.1026 47.1407C52.9969 46.5216 52.5582 46.0245 51.9574 45.8431L47.9136 44.6222V47.4719C49.1854 47.7252 50.1471 48.8504 50.1471 50.1965C50.1471 51.7284 48.9016 52.9747 47.3707 52.9747C45.8398 52.9747 44.5944 51.7284 44.5944 50.1965C44.5944 48.8459 45.5624 47.718 46.8404 47.4696V44.2981L44.9959 43.7412C44.828 44.0952 44.4952 44.8602 43.8356 46.51C43.1719 48.1719 42.3472 50.3014 41.5563 52.3717C41.5507 52.3891 41.5442 52.4061 41.5368 52.4227C41.0086 53.8057 40.4963 55.1602 40.0582 56.3287C39.9796 56.5382 39.7794 56.677 39.5558 56.677C39.3321 56.677 39.132 56.5382 39.0534 56.3287C38.6152 55.1602 38.1029 53.8057 37.5747 52.4227C37.5674 52.4061 37.5609 52.3891 37.5553 52.3717C36.7638 50.3002 35.9386 48.1693 35.2747 46.5069C34.6159 44.8592 34.2834 44.0949 34.1156 43.7412L32.2711 44.2981V45.6807C33.1612 45.8378 33.917 46.4182 34.2704 47.253C34.3851 47.5239 34.4549 47.8103 34.4778 48.1041L34.8688 53.124C34.8983 53.502 34.7675 53.8784 34.5102 54.1568C34.253 54.4352 33.888 54.5948 33.5091 54.5948H32.8401C32.5437 54.5948 32.3035 54.3544 32.3035 54.0578C32.3035 53.7613 32.5437 53.5209 32.8401 53.5209H33.5091C33.5898 53.5209 33.6676 53.4869 33.7225 53.4276C33.7773 53.3683 33.8051 53.2881 33.7989 53.2076L33.4079 48.1876C33.394 48.0096 33.3518 47.8361 33.2823 47.672C33.0346 47.0869 32.4475 46.7105 31.7841 46.7105C31.78 46.7105 31.776 46.7105 31.7718 46.7105L31.6834 46.7112C31.0009 46.716 30.3906 47.1319 30.1646 47.7459C30.1124 47.8878 30.08 48.0364 30.0681 48.1876L29.6773 53.2075C29.671 53.2881 29.6989 53.3683 29.7537 53.4276C29.8086 53.487 29.8863 53.5209 29.9671 53.5209H30.6361C30.9324 53.5209 31.1727 53.7612 31.1727 54.0578C31.1727 54.3545 30.9324 54.5948 30.6361 54.5948H29.9671C29.5882 54.5948 29.2232 54.4351 28.966 54.1568C28.7087 53.8786 28.5779 53.502 28.6074 53.1239L28.9982 48.1041C29.0177 47.8546 29.0713 47.6092 29.1576 47.3749C29.4824 46.4921 30.2711 45.855 31.198 45.6842V44.6221L27.1542 45.8431C26.5535 46.0244 26.1146 46.5216 26.009 47.1406L25.3507 50.997L24.9229 53.503ZM46.6708 32.5588C46.6708 32.5588 46.9306 32.5224 47.0961 32.4938C47.2351 32.4698 47.451 32.4265 47.451 32.4265C47.4749 32.486 47.489 32.55 47.489 32.6166V33.4327C47.489 33.7184 47.2567 33.9509 46.9712 33.9509H46.6708V32.5588ZM32.4407 33.9509H32.1404C31.8548 33.9509 31.6225 33.7184 31.6225 33.4327V32.6166C31.6225 32.55 31.6367 32.486 31.6605 32.4266C31.7403 32.4685 31.8302 32.4901 31.9227 32.4888C31.9268 32.4895 32.1557 32.4882 32.4407 32.5591V33.9509ZM33.5138 34.553V33.1423C33.6764 33.1911 33.8543 33.1844 34.0185 33.1159C34.3001 32.9983 34.482 32.7252 34.482 32.4201V27.4633C34.482 26.8601 34.9725 26.3692 35.5753 26.3692H37.0564C37.3203 26.3692 37.5782 26.4612 37.7825 26.6284L37.9278 26.7473C38.3858 27.1221 38.964 27.3284 39.5558 27.3284C40.1475 27.3284 40.7257 27.122 41.1838 26.7473L41.3291 26.6284C41.5333 26.4612 41.7912 26.3692 42.0552 26.3692H43.5362C44.1391 26.3692 44.6296 26.8601 44.6296 27.4633V32.4201C44.6296 32.7252 44.8115 32.9984 45.0931 33.1159C45.1871 33.1552 45.2856 33.1742 45.3832 33.1742C45.456 33.1742 45.5282 33.1636 45.5977 33.1428V34.553C45.5977 35.3369 45.0561 36.8593 44.0523 38.1368C43.7199 38.5599 43.2925 39.0146 42.7662 39.4119C42.7496 39.423 42.7336 39.4351 42.7184 39.448C41.9032 40.0512 40.855 40.5132 39.5558 40.5132C38.2566 40.5132 37.2084 40.0512 36.3931 39.448C36.3779 39.4351 36.362 39.423 36.3454 39.4119C35.8192 39.0146 35.3918 38.5599 35.0592 38.1368C34.0555 36.8594 33.5138 35.3369 33.5138 34.553ZM43.071 43.228L39.5558 45.8573L36.0405 43.228C36.3891 42.7846 36.5844 42.2155 36.5844 41.7076V40.8421C37.4111 41.287 38.3974 41.5872 39.5558 41.5872C40.7141 41.5872 41.7006 41.287 42.5272 40.8421V41.7076C42.5272 42.2155 42.7225 42.7846 43.071 43.228ZM35.145 42.6287C34.8585 42.5194 34.5408 42.5015 34.2403 42.5831C34.2271 42.5862 34.2143 42.5897 34.2017 42.5934L32.348 43.1532C32.6615 41.6104 33.9133 40.3825 35.5113 40.1447V41.7076C35.5113 42.0445 35.361 42.3928 35.145 42.6287ZM36.6013 46.939C36.6003 46.9365 36.5993 46.934 36.5984 46.9315C36.5712 46.8627 36.5443 46.7948 36.5177 46.7277C36.5129 46.7156 36.5081 46.7035 36.5033 46.6914C36.4773 46.6257 36.4514 46.5606 36.426 46.4965C36.4242 46.492 36.4224 46.4875 36.4206 46.483C36.3411 46.2829 36.2644 46.0911 36.1907 45.9072C36.1854 45.8939 36.18 45.8804 36.1746 45.8671C36.1534 45.8144 36.1326 45.7625 36.1119 45.7112C36.1044 45.6924 36.0968 45.6738 36.0893 45.6552C36.0693 45.6055 36.0494 45.556 36.0298 45.5077C36.0239 45.4932 36.0182 45.4792 36.0124 45.4648C35.9768 45.377 35.942 45.2914 35.9081 45.208C35.899 45.1854 35.8896 45.1624 35.8805 45.1402C35.8672 45.1077 35.8542 45.076 35.8412 45.0441C35.8272 45.0098 35.8132 44.9757 35.7994 44.9422C35.7943 44.9296 35.7889 44.9164 35.7837 44.9039C35.7796 44.8939 35.7758 44.8847 35.7717 44.8747C35.7097 44.724 35.6508 44.582 35.595 44.4485L35.5936 44.4452C35.5638 44.3741 35.5347 44.3046 35.5067 44.2385C35.4922 44.2042 35.4779 44.1704 35.4638 44.1374L38.4871 46.3985L37.2238 46.9356C37.2216 46.9365 37.2193 46.9374 37.2171 46.9384L36.6897 47.1626C36.6598 47.0869 36.6305 47.0128 36.6013 46.939ZM37.8816 50.2267C37.7756 49.9515 37.6688 49.6747 37.5618 49.3982C37.3945 48.9657 37.2347 48.5545 37.0818 48.1627L37.282 48.0776L38.1002 49.0293L37.8816 50.2267ZM39.5662 54.5907C39.5508 54.5588 39.5324 54.5286 39.5113 54.5006C39.2688 53.8593 38.9611 53.0478 38.6205 52.155L39.1215 49.4103H39.9901L40.4911 52.155C40.1342 53.0903 39.8136 53.9361 39.5662 54.5907ZM40.1913 48.3365H38.9202L38.3187 47.6369L39.5558 47.111L40.7928 47.6369L40.1913 48.3365ZM41.5497 49.3982C41.4427 49.6747 41.336 49.9515 41.23 50.2267L41.0114 49.0292L41.8295 48.0775L42.0298 48.1627C41.8768 48.5544 41.717 48.9657 41.5497 49.3982ZM43.6049 44.2385C43.5784 44.3012 43.5507 44.367 43.5226 44.4342C43.519 44.4429 43.5152 44.4517 43.5116 44.4606C43.4838 44.5272 43.4554 44.5952 43.4261 44.666C43.4241 44.6707 43.4221 44.6756 43.4202 44.6803C43.3949 44.7414 43.3689 44.8044 43.3425 44.8687C43.3376 44.8807 43.3329 44.8918 43.328 44.9039C43.3221 44.9183 43.3158 44.9336 43.3099 44.9481C43.2981 44.9768 43.2862 45.006 43.2741 45.0352C43.2594 45.0712 43.2447 45.1071 43.2296 45.144C43.2248 45.1557 43.2199 45.168 43.215 45.1798C43.1777 45.2714 43.1393 45.3658 43.1001 45.4627C43.0939 45.4779 43.0879 45.4928 43.0817 45.5082C43.0623 45.5561 43.0426 45.605 43.0227 45.6542C43.015 45.6735 43.0072 45.6927 42.9994 45.7122C42.9789 45.7629 42.9583 45.8144 42.9374 45.8665C42.9315 45.881 42.9256 45.8959 42.9197 45.9105C42.8469 46.0919 42.7714 46.281 42.693 46.4781C42.6905 46.4846 42.6879 46.491 42.6853 46.4976C42.66 46.5612 42.6344 46.626 42.6084 46.6912C42.6037 46.7034 42.5988 46.7156 42.5939 46.7278C42.5672 46.7953 42.5402 46.8634 42.5128 46.9327L42.5113 46.9365C42.4819 47.0111 42.4522 47.0862 42.422 47.1628L41.8941 46.9383C41.8922 46.9376 41.8904 46.9368 41.8886 46.936L40.6246 46.3987L43.6479 44.1375C43.6337 44.1704 43.6194 44.2041 43.6049 44.2385ZM44.9098 42.5935L44.9082 42.593C44.5969 42.4995 44.2648 42.515 43.9666 42.6287C43.7506 42.3928 43.6003 42.0445 43.6003 41.7076V40.1439C45.2083 40.3811 46.4563 41.5975 46.7658 43.1538L44.9098 42.5935ZM49.074 50.1965C49.074 51.1363 48.3099 51.9009 47.3707 51.9009C46.4316 51.9009 45.6675 51.1363 45.6675 50.1965C45.6675 49.2566 46.4316 48.492 47.3707 48.492C48.3099 48.492 49.074 49.2566 49.074 50.1965Z" stroke="#788392" stroke-width="0.7"/>
</svg>
